# xmcd CD database file
#
# Track frame offsets:
#	150
#	15220
#	28995
#	42662
#	54685
#	65812
#	75520
#	88252
#	99867
#	112940
#	130312
#	141667
#
# Disc length: 2032 seconds
#
# Revision: 0
# Processed by: cddbd v1.5.1PL0 Copyright (c) Steve Scherf et al.
# Submitted via: CDex 1.51
#
DISCID=a607ee0c
DTITLE=Joe Cuba - Hanin' Out/Vagabundeando
DYEAR=1964
DGENRE=Salsa
TTITLE0=Quinto Sabroso
TTITLE1=I Need You
TTITLE2=Oriza Oco
TTITLE3=Flaco's Cha Cha
TTITLE4=No Coman Cuento
TTITLE5=Oye Bien
TTITLE6=Yo y Borinquen
TTITLE7=Quieres Volver
TTITLE8=Nina Nina
TTITLE9=El Raton 
TTITLE10=Trip To Mamboland
TTITLE11=Ya Sa Acabo
EXTD=YEAR: 1964
EXTT0=
EXTT1=
EXTT2=
EXTT3=
EXTT4=
EXTT5=
EXTT6=
EXTT7=
EXTT8=
EXTT9=
EXTT10=
EXTT11=
PLAYORDER=
